<svg xmlns="http://www.w3.org/2000/svg" viewBox="0 0 512 512" fill="none">
  <rect width="512" height="512" rx="100" fill="#25D366"/>
  <path d="M256,104c-83.8,0-152,68.2-152,152c0,27.2,7.2,52.8,19.6,75.2L104,392l64-18.4 c22.4,11.2,46.4,17.6,72,17.6c83.8,0,152-68.2,152-152S339.8,104,256,104z M320,314.4c-3.2,8.8-19.2,16-26.4,17.6 c-7.2,1.6-14.4,2.4-24-0.8c-24.8-8-56-27.2-76-50.4c-20-23.2-28.8-40.8-28.8-60.8c0-20,10.4-30.4,14.4-34.4 c4-4,8.8-4.8,12-4.8c3.2,0,5.6,0,8,0.8c2.4,0.8,6.4-0.8,9.6,7.2c3.2,8,11.2,27.2,12.8,29.6c1.6,2.4,2.4,4.8,0.8,8 c-1.6,3.2-2.4,4.8-4.8,8c-2.4,3.2-4.8,6.4-7.2,8.8c-2.4,2.4-4.8,4.8-1.6,9.6c3.2,4.8,12.8,20.8,27.2,33.6 c18.4,16,33.6,20.8,38.4,23.2c4.8,2.4,7.2,1.6,10.4-1.6c3.2-3.2,13.6-16,16.8-20.8c3.2-4.8,7.2-4,11.2-2.4 c4,1.6,25.6,12,30.4,14.4c4.8,2.4,8,4,8.8,5.6C324,300,323.2,305.6,320,314.4z" fill="white"/>
</svg>
